# xmcd CD database file
#
# Track frame offsets:
#	150
#	21442
#	38743
#	56675
#	81412
#	99326
#	120105
#	145151
#	165725
#	187468
#	207986
#	229164
#	245281
#	266209
#
# Disc length: 3786 seconds
#
# Revision: 2
# Processed by: cddbd v1.5.2PL0 Copyright (c) Steve Scherf et al.
# Submitted via: CDex 1.70beta2
#
DISCID=c60ec80e
DTITLE=Varios New Age - Lounge club de PARIS CD2
DYEAR=1900
DGENRE=New Age
TTITLE0=Low And Cooldown
TTITLE1=Full Moon
TTITLE2=The Jam
TTITLE3=Clink
TTITLE4=Nexus
TTITLE5=Plunder
TTITLE6=Go' Round
TTITLE7=Tungsten
TTITLE8=Spoonbill
TTITLE9=Judder
TTITLE10=Night In Egypt
TTITLE11=Crazy Murdoch
TTITLE12=Fletcher
TTITLE13=Lounge Suite
EXTD=
EXTT0=
EXTT1=
EXTT2=
EXTT3=
EXTT4=
EXTT5=
EXTT6=
EXTT7=
EXTT8=
EXTT9=
EXTT10=
EXTT11=
EXTT12=
EXTT13=
PLAYORDER=
